<svg height="512pt" viewBox="-44 0 512 512" width="512pt" xmlns="http://www.w3.org/2000/svg"><path d="M187.2 102.477c-76.946 0-139.49 62.359-139.49 139.488v20.734a84.311 84.311 0 0 1-24.698 59.625L3.809 341.531c-8.137 8.133-2.375 22.04 9.128 22.04H40.56a7.154 7.154 0 0 1 7.152 7.152v23.695c0 35.41 28.969 64.379 64.379 64.379 13.805 0 25.035 11.187 25.035 25.035v20.566a7.6 7.6 0 0 0 7.602 7.602h118.808a7.712 7.712 0 0 0 7.711-7.71v-52.747c0-20.68 6.895-41.035 20.578-56.543 21.696-24.582 34.864-56.867 34.864-92.23v-60.805c0-77.035-62.454-139.488-139.489-139.488zm0 0" fill="#e4eaf8"/><path d="M23.98 341.527l19.204-19.203a84.33 84.33 0 0 0 24.699-59.629v-20.73c0-73.73 57.152-133.953 129.402-139.121a141.366 141.366 0 0 0-10.086-.367c-76.945 0-139.488 62.359-139.488 139.488v20.73a84.313 84.313 0 0 1-24.7 59.63L3.81 341.526c-8.137 8.137-2.375 22.043 9.128 22.043H33.11c-11.504 0-17.261-13.906-9.129-22.043zm0 0M157.297 504.398v-20.566c0-13.848-11.23-25.035-25.035-25.035-35.407 0-64.38-28.969-64.38-64.379v-23.695a7.154 7.154 0 0 0-7.152-7.153H40.56a7.154 7.154 0 0 1 7.152 7.153v23.695c0 35.41 28.969 64.379 64.379 64.379 13.805 0 25.035 11.187 25.035 25.035v20.566a7.6 7.6 0 0 0 7.602 7.602h20.171a7.6 7.6 0 0 1-7.601-7.602zm0 0" fill="#ccd2db"/><path d="M386.855 34.914h-30.457v14.41a3.808 3.808 0 0 1-3.808 3.809h-16.781V72.39a3.022 3.022 0 0 0 3.023 3.02h48.023a3.02 3.02 0 0 0 3.02-3.02V37.934a3.02 3.02 0 0 0-3.02-3.02zm0 0" fill="#ee5253"/><path d="M356.398 34.914v14.41a3.808 3.808 0 0 1-3.808 3.809h-16.781V72.39a3.022 3.022 0 0 0 3.023 3.02h17.273c12.602-.77 22.622-11.263 22.622-24.056v-16.44zm0 0" fill="#d83941"/><path d="M354.621 14.664H304.36V55.16h50.262a3.804 3.804 0 0 0 3.805-3.805V18.473a3.808 3.808 0 0 0-3.805-3.809zm0 0" fill="#ff6b6b"/><path d="M304.36 14.664h27.913V55.16H304.36zm0 0" fill="#ee5253"/><path d="M304.36 113.828a7.612 7.612 0 0 1-7.61-7.613V7.613A7.61 7.61 0 0 1 304.36 0a7.61 7.61 0 0 1 7.613 7.613v98.602a7.613 7.613 0 0 1-7.614 7.613zm0 0" fill="#e4eaf8"/><path d="M185.863 294.77l65.41-107.528-30.058-49.543c-1.442-2.172-4.719-2.105-6.074.117l-96.38 158.442c-1.741 2.863.372 6.488 3.786 6.488h67.973c-4.2 0-6.797-4.457-4.657-7.976zm0 0" fill="#feca57"/><path d="M139.059 296.258l89.296-146.793-7.14-11.77c-1.442-2.168-4.719-2.101-6.074.121l-96.383 158.438c-1.738 2.863.375 6.488 3.789 6.488h20.297c-3.414.004-5.528-3.62-3.785-6.484zm0 0M423.422 296.266L307.137 99.84c-1.73-2.668-5.664-2.59-7.29.148L184.228 294.77c-2.09 3.52.445 7.976 4.539 7.976H419.73c3.325 0 5.387-3.617 3.692-6.48zm0 0" fill="#f4b537"/><path d="M204.523 294.77l109.153-183.883-6.54-11.047c-1.734-2.668-5.663-2.586-7.288.148L184.227 294.77c-2.09 3.52.445 7.976 4.539 7.976h20.3c-4.093 0-6.632-4.457-4.543-7.976zm0 0" fill="#e59d1f"/></svg>