<svg height="464pt" viewBox="0 0 464.199 464" width="464pt" xmlns="http://www.w3.org/2000/svg"><path d="M432.2.098c17.671 0 32 14.328 32 32v240h-64v-240c0-17.672 14.327-32 32-32zm0 0" fill="#ee1442"/><path d="M444.2 2.5a31.908 31.908 0 0 0-44 29.598v240h24v-240a31.996 31.996 0 0 1 20-29.598zm0 0" fill="#ce1743"/><path d="M448.2 304.098v-32h-48v192c35.347 0 64-28.653 64-64v-80c0-8.836-7.165-16-16-16zm0 0" fill="#88d3d1"/><path d="M416.2 407.148v-103.05c0-8.836 7.163-16 16-16h16v-16h-48v192h.8c8.566-.328 15.309-7.426 15.2-16zm0 0" fill="#33b1a2"/><path d="M432.2 408.098c-4.419 0-8-3.578-8-8v-48a8 8 0 0 1 16 0v48c0 4.422-3.583 8-8 8zm0 0" fill="#c5dddc"/><path d="M400.2 208.098h64v32h-64zm0 0" fill="#88d3d1"/><path d="M400.2 176.098h64v32h-64zm0 0" fill="#c5dddc"/><path d="M400.2 176.098h24v32h-24zm0 0" fill="#88d3d1"/><path d="M400.2 208.098h24v32h-24zm0 0" fill="#33b1a2"/><path d="M196.895 391.395a8 8 0 0 1-2.727-15.512l30.031-10.985a8.007 8.007 0 0 1 7.985 1.301 7.994 7.994 0 0 1 2.765 7.602 7.997 7.997 0 0 1-5.277 6.129l-30.074 10.953a7.9 7.9 0 0 1-2.703.512zm0 0" fill="#c5dddc"/><path d="M145.277 391.395c-.93 0-1.859-.16-2.734-.48l-30.07-10.95a7.999 7.999 0 0 1-4.637-10.2 7.998 7.998 0 0 1 10.105-4.835l30.075 10.953a7.996 7.996 0 0 1 5.125 8.902 7.998 7.998 0 0 1-7.864 6.61zm0 0" fill="#88d3d1"/><path d="M336.902 394.7c-9.414-18.493-29.558-28.934-50.093-25.97a47.228 47.228 0 0 0-23.348 10.403L185.863 166.02a7.998 7.998 0 0 1 4.8-10.258 7.995 7.995 0 0 0 4.798-10.254l-52-142.832c-24.906 9.066-37.75 36.61-28.688 61.52l32 88L248.2 430.827c8.57 24.578 34.781 38.242 59.84 31.2a47.997 47.997 0 0 0 30.035-26.977 47.995 47.995 0 0 0-1.172-40.352zm-37.504 36.51c-8.308 3.005-17.476-1.296-20.48-9.6-3.008-8.305 1.285-17.477 9.586-20.489 8.305-3.012 17.476 1.277 20.496 9.578a16.007 16.007 0 0 1-.547 12.246 16.006 16.006 0 0 1-9.055 8.266zm0 0" fill="#c5dddc"/><path d="M195.398 152.188l32-87.961c9.067-24.91-3.777-52.454-28.687-61.52l-27.625 75.871 24.375 66.961m-24.375 73.383l-17.024-46.781-75.351 207.023a47.25 47.25 0 0 0-23.344-10.402c-24.75-3.559-48.086 12.472-53.637 36.851-5.554 24.38 8.54 48.938 32.387 56.446 25.059 7.046 51.274-6.621 59.84-31.2zM63.246 421.645c-3.012 8.304-12.187 12.593-20.492 9.585-8.305-3.011-12.598-12.183-9.594-20.492 3.008-8.304 12.18-12.601 20.488-9.597a15.984 15.984 0 0 1 9.047 8.261c1.801 3.844 2 8.25.551 12.243zm0 0" fill="#88d3d1"/><path d="M154.063 172.14l-8.512 23.391 17.023 46.778 8.512-23.387zm41.397-26.6l-.085 6.648 9.77-26.825-25.547-70.175-8.512 23.39zm0 0" fill="#33b1a2"/><path d="M326.277 446.059c-25.054 7.046-51.27-6.621-59.84-31.2L165 136.188l-32-87.961a47.871 47.871 0 0 1 5.422-43.329c-21.797 10.907-31.961 36.415-23.64 59.32l32 88 101.417 278.61c8.57 24.578 34.781 38.242 59.84 31.2a47.753 47.753 0 0 0 25.656-19.063 48.502 48.502 0 0 1-7.418 3.094zm0 0" fill="#88d3d1"/><path d="M58.117 446.059a47.977 47.977 0 0 1-30.039-26.993A48.002 48.002 0 0 1 29.27 378.7a45.903 45.903 0 0 1 5.53-8.39C14.91 375.922.888 393.684.04 414.332c-.845 20.648 11.679 39.5 31.042 46.719 19.363 7.222 41.172 1.176 54.055-14.985a45.995 45.995 0 0 1-27.02-.007zm0 0" fill="#33b1a2"/></svg>