<svg xmlns="http://www.w3.org/2000/svg" viewBox="0 0 512 512"><path d="M207.467 344.766l-6.282-1.411 10.125-46.115c1.03-12.62-2.548-44.415 13.352-86.195L329.798 3.894c1.483-3.897 6.375-5.155 9.554-2.457a34.38 34.38 0 0 1 12.069 28.376l-38.517 221.629a41.557 41.557 0 0 1-12.184 26.871l-40.297 40.042-22.988 102.364c-2.842 12.656-16.436 20.611-29.091 17.769l-.287-.296 14.474-69.04c2.574-11.463-3.601-21.812-15.064-24.386z" fill="silver"/><path d="M222.909 361.196l9.638-43.899c1.155-14.145-2.856-49.783 14.965-96.612L350.199 18.361a34.372 34.372 0 0 0-10.847-16.923c-3.179-2.698-8.071-1.44-9.554 2.457l-105.137 207.15c-15.875 41.717-12.326 73.632-13.352 86.195l-10.125 46.115c1.95.927 19.478 1.175 21.725 17.841z" fill="#afb1b2"/><path d="M304.564 344.766l6.282-1.411-10.125-46.115c-1.03-12.62 2.548-44.415-13.352-86.195L182.233 3.894c-1.483-3.897-6.375-5.155-9.554-2.457a34.38 34.38 0 0 0-12.069 28.376l38.517 221.629a41.557 41.557 0 0 0 12.184 26.871l31.347 31.149a43.255 43.255 0 0 1 11.715 21.204l20.224 90.054c2.842 12.656 16.436 20.611 29.091 17.769l.287-.296-14.474-69.04c-2.575-11.464 3.601-21.813 15.063-24.387z" fill="#e6e7e8"/><path d="M288.951 362.982l-10.685-47.577a43.247 43.247 0 0 0-11.715-21.204l-31.347-31.149a41.557 41.557 0 0 1-12.184-26.871C183.163 3.176 183.751 16.802 184.645 8.646l-2.412-4.752c-1.483-3.897-6.375-5.155-9.554-2.457a34.38 34.38 0 0 0-12.069 28.376l38.517 221.629a41.557 41.557 0 0 0 12.184 26.871l31.347 31.149a43.255 43.255 0 0 1 11.715 21.204l20.224 90.053c2.842 12.656 16.436 20.611 29.091 17.769l.288-.296c-15.19-73.551-15.269-70.189-15.025-75.21z" fill="#d9dadb"/><path d="M207.467 343.735l-69.04-15.505c-50.628-11.37-101.511 20.196-112.508 70.906-10.784 49.728 20.37 98.927 69.934 110.441 50.543 11.742 100.834-20.758 112.204-71.386l15.505-69.04c2.574-11.462-4.632-22.841-16.095-25.416zm-37.147 87.114c-6.62 29.479-35.885 48.01-65.364 41.39-29.48-6.62-48.01-35.885-41.39-65.365 6.62-29.48 35.885-48.011 65.364-41.39 29.479 6.62 48.01 35.885 41.39 65.365z" fill="#d83d3d"/><path d="M51.674 399.137c8.528-39.323 41.041-67.128 78.819-72.333-47.903-6.584-94.152 24.273-104.574 72.333-13.773 63.513 40.254 120.947 103.666 111.924-53.523-7.596-89.371-59.074-77.911-111.924z" fill="#c43131"/><circle cx="248.56" cy="241.13" r="16.407" fill="#70bbef"/><path d="M248.563 224.734c-12.51-.018-20.568 13.595-14.216 24.598 6.354 11.005 22.173 10.827 28.41-.013-5.662-.008-20.501-13.625-14.194-24.585z" fill="#4caee5"/><path d="M486.112 399.137c-10.997-50.71-61.88-82.276-112.508-70.906l-69.04 15.505c-11.463 2.574-18.669 13.954-16.095 25.417l15.505 69.04c11.37 50.628 61.661 83.128 112.204 71.386 49.564-11.516 80.718-60.714 69.934-110.442zm-79.036 73.102c-29.479 6.62-58.744-11.911-65.365-41.39-6.62-29.48 11.911-58.744 41.39-65.365 29.48-6.62 58.744 11.911 65.365 41.39 6.62 29.48-11.91 58.744-41.39 65.365z" fill="#d83d3d"/><path d="M328.185 427.203l-15.505-69.04c-1.382-6.156.075-12.275 3.478-17.032l-11.594 2.604c-11.463 2.574-18.669 13.954-16.095 25.417l15.505 69.04c11.37 50.628 61.661 83.128 112.204 71.386a92.896 92.896 0 0 0 29.187-12.293c-52.228 15.17-105.447-17.837-117.18-70.082z" fill="#c43131"/></svg>