<svg xmlns="http://www.w3.org/2000/svg" viewBox="0 0 512 512"><path d="M58.057 250.452a15.01 15.01 0 0 1-11.455-5.288 236.904 236.904 0 0 1-34.526-54.082C-11.919 139.095.562 73.55 43.145 30.981l11.587-11.587c5.859-5.859 15.352-5.859 21.211 0s5.859 15.352 0 21.211L64.355 52.192c-33.721 33.735-43.784 85.687-25.034 126.321a206.706 206.706 0 0 0 30.161 47.227c5.361 6.313 4.585 15.791-1.729 21.152a14.976 14.976 0 0 1-9.696 3.56z" fill="#e5e5e5"/><path d="M273.943 250.452c-3.428 0-6.87-1.172-9.697-3.56-6.313-5.361-7.09-14.839-1.729-21.152a206.65 206.65 0 0 0 30.161-47.227c18.75-40.635 8.687-92.586-25.034-126.321l-11.587-11.587c-5.859-5.859-5.859-15.352 0-21.211s15.352-5.859 21.211 0l11.587 11.587c42.583 42.568 55.063 108.113 31.069 160.101a236.904 236.904 0 0 1-34.526 54.082 15.01 15.01 0 0 1-11.455 5.288z" fill="#d9d9d9"/><path d="M452 347v30c0 8.399-6.599 15-15 15s-15-6.601-15-15v-30c0-13.2-5.7-25.8-15.901-34.2-10.199-8.7-23.399-12.3-36.899-10.201-21 3.602-37.2 24.001-37.2 47.701V422a90.225 90.225 0 0 1-29.7 66.899c-16.499 15-38.1 23.101-60.6 23.101-2.999 0-6-.3-9-.601-27.599-2.699-52.601-18.9-66.7-42.299-9.6-14.702-15-32.401-15-51.301V332c0-8.401 6.599-15 15-15s15 6.599 15 15v85.8c0 32.701 24.699 60.901 54.699 63.9 17.401 1.8 33.9-3.6 46.501-15.3 12.6-11.401 19.8-27.6 19.8-44.4v-71.7c0-38.401 27.001-71.4 62.401-77.401 22.2-3.3 44.399 2.701 61.199 17.1C442.4 304.1 452 325.099 452 347z" fill="#17ace8"/><path d="M322.099 228.199c-55.499 86.7-142 114.901-145 116.7-3.6 1.5-7.2 2.1-11.1 2.1s-7.5-.601-11.1-2.1c-2.999-1.8-89.2-30-145-116.7-6.301-9.3-6.601-20.4-1.201-30.3C14.099 188 24.3 182 35.099 182 45.3 182 54.9 187.4 60.9 196.7c40.199 61.8 102.1 86.1 105.099 88.2 2.999-2.1 64.9-26.4 105.099-88.2 6-9.3 15.601-14.7 25.801-14.7 10.8 0 21 6 26.4 15.599 5.401 10.201 5.101 21.3-1.2 30.6zM69.731 55.605l-30-30c-5.859-5.859-5.859-15.352 0-21.211s15.352-5.859 21.211 0l30 30c5.859 5.859 5.859 15.352 0 21.211-5.859 5.86-15.351 5.86-21.211 0z" fill="#1de8f1"/><path d="M241.058 55.605c-5.859-5.859-5.859-15.352 0-21.211l30-30c5.859-5.859 15.352-5.859 21.211 0s5.859 15.352 0 21.211l-30 30c-5.86 5.86-15.352 5.86-21.211 0zm81.041 172.594c-55.499 86.7-142 114.901-145 116.7-3.6 1.5-7.2 2.1-11.1 2.1v-62.1c2.999-2.1 64.9-26.4 105.099-88.2 6-9.3 15.601-14.7 25.801-14.7 10.8 0 21 6 26.4 15.599 5.401 10.202 5.101 21.301-1.2 30.601z" fill="#1bd9de"/><path d="M437 362c-41.4 0-75 33.6-75 75s33.6 75 75 75 75-33.6 75-75-33.6-75-75-75z" fill="#e5e5e5"/><path d="M437 392c-24.901 0-45 20.099-45 45 0 24.899 20.099 45 45 45s45-20.101 45-45c0-24.901-20.099-45-45-45z" fill="#1de8f1"/><path d="M452 437c0 8.399-6.599 15-15 15s-15-6.601-15-15c0-8.401 6.599-15 15-15s15 6.599 15 15z" fill="#e5e5e5"/><path d="M512 437c0 41.4-33.6 75-75 75V362c41.4 0 75 33.6 75 75z" fill="#d9d9d9"/><path d="M482 437c0 24.899-20.099 45-45 45v-90c24.901 0 45 20.099 45 45z" fill="#1bd9de"/><path d="M452 437c0 8.399-6.599 15-15 15v-30c8.401 0 15 6.599 15 15z" fill="#d9d9d9"/></svg>