<svg viewBox="0 -1 464 464" xmlns="http://www.w3.org/2000/svg"><path d="m304 373.09375h160v16h-160zm0 0" fill="#a2a2a3"/><path d="m376 197.09375h32v56h-32zm0 0" fill="#a2a2a3"/><path d="m392 413.09375h64v16h-64zm0 0" fill="#a2a2a3"/><path d="m424 333.09375c8.835938 0 16-7.160156 16-16v-16h-32v16c0 8.839844 7.164062 16 16 16zm0 0" fill="#fce688"/><g fill="#ffe5c2"><path d="m248 133.09375-15.199219-57.71875c-4.039062-10.097656-12.492187-17.78125-22.929687-20.839844s-21.699219-1.152344-30.550782 5.167969c-11.667968 8.335937-27.207031 8.816406-39.367187 1.214844l-3.496094-2.183594c-9.5-5.9375-21.25-7.03125-31.683593-2.949219-10.433594 4.082032-18.320313 12.859375-21.269532 23.671875l-11.503906 53.636719zm0 0"/><path d="m60 133.09375c-11.046875 0-20 8.957031-20 20 0 11.046875 8.953125 20 20 20h12v-40zm0 0"/><path d="m260 133.09375h-12v40h12c11.046875 0 20-8.953125 20-20 0-11.042969-8.953125-20-20-20zm0 0"/><path d="m232 189.09375h-40c-17.671875 0-32-14.324219-32-32 0 17.675781-14.328125 32-32 32h-40c-8.835938 0-16-7.160156-16-16v8c0 48.601562 39.398438 88 88 88s88-39.398438 88-88v-8c0 8.839844-7.164062 16-16 16zm0 0"/></g><path d="m272 317.09375h-72l-40 40-40-40h-72c-26.507812 0-48 21.492188-48 48v72h320v-72c0-26.507812-21.492188-48-48-48zm0 0" fill="#f2fcff"/><path d="m136.414062 58.734375 3.496094 2.183594c12.160156 7.601562 27.703125 7.121093 39.371094-1.214844 8.851562-6.335937 20.125-8.25 30.574219-5.191406 10.449219 3.058593 18.910156 10.753906 22.945312 20.863281l15.199219 57.71875-3.335938-79.804688c-3.054687-19.242187-14.8125-36-31.871093-45.414062-17.054688-9.417969-37.496094-10.441406-55.410157-2.78125l-37.382812 16c-30.929688 0-56 25.074219-56 56l8 56 11.464844-53.597656c2.9375-10.816406 10.820312-19.605469 21.253906-23.695313 10.4375-4.089843 22.191406-3.003906 31.695312 2.933594zm0 0" fill="#bd8331"/><path d="m160 133.09375h-88v40c0 8.839844 7.164062 16 16 16h40c17.671875 0 32-14.324219 32-32 0 17.675781 14.328125 32 32 32h40c8.835938 0 16-7.160156 16-16v-40zm0 0" fill="#a8e2f7"/><path d="m360 429.09375-40-40v-24c-.007812-18.492188 8.015625-36.082031 21.992188-48.199219l-29.503907-36.597656c-15.71875 16.335937-24.496093 38.128906-24.488281 60.796875v120h176v-32zm0 0" fill="#b6b6b7"/><path d="m424 189.09375v-16c0-4.417969-3.582031-8-8-8h-48c-4.417969 0-8 3.582031-8 8v16c0 4.421875 3.582031 8 8 8h48c4.417969 0 8-3.578125 8-8zm0 0" fill="#e7e7e8"/><path d="m160 269.09375c-13.914062 0-27.625-3.320312-40-9.679688v57.679688l40 40 40-40v-57.679688c-12.375 6.359376-26.085938 9.679688-40 9.679688zm0 0" fill="#ffe5c2"/><path d="m120 171.09375c-7.730469 0-14-6.265625-14-14 0-7.730469 6.269531-14 14-14s14 6.269531 14 14c-.007812 7.730469-6.273438 13.992188-14 14zm0-16c-1.105469 0-2 .898438-2 2 0 2.203125 4 2.203125 4 0 0-1.101562-.894531-2-2-2zm0 0" fill="#805821"/><path d="m200 171.09375c-7.730469 0-14-6.265625-14-14 0-7.730469 6.269531-14 14-14s14 6.269531 14 14c-.007812 7.730469-6.273438 13.992188-14 14zm0-16c-1.105469 0-2 .898438-2 2 0 2.203125 4 2.203125 4 0 0-1.101562-.894531-2-2-2zm0 0" fill="#805821"/><path d="m160 243.09375c-16.558594-.019531-29.976562-13.4375-30-30h12c0 9.941406 8.058594 18 18 18s18-8.058594 18-18h12c-.023438 16.5625-13.441406 29.980469-30 30zm0 0" fill="#f5d5ab"/><path d="m416 253.09375h-40c-6.738281.035156-13.445312.839844-20 2.402344l14.824219 47.007812c4.332031-.925781 8.746093-1.398437 13.175781-1.410156h16v8h48v-8h16c0-26.507812-21.492188-48-48-48zm0 0" fill="#b6b6b7"/><path d="m344 317.09375c17.066406.070312 31.179688-13.265625 32.082031-30.308594.898438-17.042968-11.730469-31.792968-28.707031-33.523437-16.976562-1.734375-32.328125 10.160156-34.886719 27.035156-1.667969 9.242187.910157 18.746094 7.019531 25.878906 6.109376 7.132813 15.101563 11.144531 24.492188 10.917969zm0 0" fill="#e7e7e8"/><path d="m120 259.414062v8c25.105469 12.90625 54.894531 12.90625 80 0v-8c-25.105469 12.90625-54.894531 12.90625-80 0zm0 0" fill="#f2dab8"/><path d="m120 389.09375c-3.671875 0-6.871094-2.5-7.761719-6.0625l-6.484375-25.9375h-33.753906c-4.417969 0-8-3.578125-8-8v-32h16v24h32c3.671875.003906 6.871094 2.503906 7.761719 6.066406l5.902343 23.617188 15.808594-5.265625 5.054688 15.199219-24 8c-.816406.265624-1.667969.394531-2.527344.382812zm0 0" fill="#d3eaf2"/><path d="m200 389.09375c-.859375.003906-1.714844-.136719-2.527344-.414062l-24-8 5.054688-15.199219 15.808594 5.261719 5.902343-23.613282c.902344-3.550781 4.097657-6.035156 7.761719-6.035156h32v-24h16v32c0 4.421875-3.582031 8-8 8h-33.753906l-6.484375 25.9375c-.890625 3.5625-4.089844 6.0625-7.761719 6.0625zm0 0" fill="#d3eaf2"/></svg>