<svg height="512pt" viewBox="0 -31 512 512" width="512pt" xmlns="http://www.w3.org/2000/svg"><path d="m288.699219 270.597656c1.5 8.101563-4.199219 15.902344-12.300781 17.101563l-50.398438 10.5-51.597656 10.800781h-2.402344c-8.101562-1.5-13.800781-9.300781-12.300781-17.402344l21.601562-129c1.199219-7.199218 7.5-12.597656 14.699219-12.597656h60c7.199219 0 13.5 5.398438 14.699219 12.597656zm0 0" fill="#a8ebfa"/><path d="m270.699219 162.597656 18 108c1.5 8.101563-4.199219 15.902344-12.300781 17.101563l-50.398438 10.5v-148.199219h30c7.199219 0 13.5 5.398438 14.699219 12.597656zm0 0" fill="#76e2f8"/><path d="m301 120v15c0 24.898438-20.097656 45-45 45h-60c-24.902344 0-45-20.101562-45-45v-15l29.097656-30h92.703125zm0 0" fill="#a8d3d8"/><path d="m256 180h-30v-90h46.800781l28.199219 30v15c0 24.898438-20.097656 45-45 45zm0 0" fill="#8ebac5"/><path d="m482 293.097656-30 98.703125-116.5 50.398438c-10.5 5.101562-22.199219 7.800781-33.597656 7.800781 0 0-42.003906 0-75.902344 0h-41.699219c-16.199219 0-32.101562-5.398438-45-15l-108.300781-81c-13.5-9.902344-15.902344-28.800781-6-42 12-14.402344 29.101562-15.300781 42-6l21 15.597656 47.398438 35.402344c2.402343 1.800781 5.699218 3 9 3h156.601562c8.402344 0 15-6.601562 15-15 0-8.402344-6.597656-15-15-15 0 0-40.800781 0-75 0h-45c-16.5 0-30-13.5-30-30s13.5-30 30-30h70.5c9.300781-4.800781 27.300781-23.699219 72.902344-30h127.597656zm0 0" fill="#fdd1a3"/><path d="m482 293.097656-30 98.703125-116.5 50.398438c-10.5 5.101562-22.199219 7.800781-33.597656 7.800781 0 0-42.003906 0-75.902344 0v-90h75c8.402344 0 15-6.601562 15-15 0-8.402344-6.597656-15-15-15 0 0-40.800781 0-75 0v-60h25.5c9.300781-4.800781 27.300781-23.699219 72.902344-30h127.597656zm0 0" fill="#ffbb85"/><path d="m497 420h-30c-8.285156 0-15-6.714844-15-15v-165h45c8.285156 0 15 6.714844 15 15v150c0 8.285156-6.714844 15-15 15zm0 0" fill="#cc2e43"/><path d="m226 0h-211c-8.402344 0-15 6.597656-15 15v90c0 8.398438 6.597656 15 15 15h286v-45c0-41.398438-33.601562-75-75-75zm0 0" fill="#deecf1"/><path d="m301 75v45h-75v-120c41.398438 0 75 33.601562 75 75zm0 0" fill="#c6e2e7"/></svg>