<svg height="512pt" viewBox="-44 0 512 512" width="512pt" xmlns="http://www.w3.org/2000/svg"><path d="m187.199219 102.476562c-76.945313 0-139.488281 62.359376-139.488281 139.488282v20.734375c0 22.363281-8.882813 43.8125-24.699219 59.625l-19.203125 19.207031c-8.136719 8.132812-2.375 22.039062 9.128906 22.039062h27.621094c3.949218 0 7.152344 3.203126 7.152344 7.152344v23.695313c0 35.410156 28.96875 64.378906 64.378906 64.378906 13.804687 0 25.035156 11.1875 25.035156 25.035156v20.566407c0 4.199218 3.402344 7.601562 7.601562 7.601562h118.808594c4.257813 0 7.710938-3.453125 7.710938-7.710938v-52.746093c0-20.679688 6.894531-41.035157 20.578125-56.542969 21.695312-24.582031 34.863281-56.867188 34.863281-92.230469v-60.804687c0-77.035156-62.453125-139.488282-139.488281-139.488282zm0 0" fill="#e4eaf8"/><path d="m23.980469 341.527344 19.203125-19.203125c15.8125-15.8125 24.699218-37.261719 24.699218-59.628907v-20.730468c0-73.730469 57.152344-133.953125 129.402344-139.121094-3.332031-.238281-6.695312-.367188-10.085937-.367188-76.945313 0-139.488281 62.359376-139.488281 139.488282v20.730468c0 22.367188-8.882813 43.816407-24.699219 59.628907l-19.203125 19.203125c-8.136719 8.136718-2.375 22.042968 9.128906 22.042968h20.171875c-11.503906 0-17.261719-13.90625-9.128906-22.042968zm0 0" fill="#ccd2db"/><path d="m157.296875 504.398438v-20.566407c0-13.847656-11.230469-25.035156-25.035156-25.035156-35.40625 0-64.378907-28.96875-64.378907-64.378906v-23.695313c0-3.949218-3.203124-7.152344-7.152343-7.152344h-20.171875c3.949218 0 7.152344 3.203126 7.152344 7.152344v23.695313c0 35.410156 28.96875 64.378906 64.378906 64.378906 13.804687 0 25.035156 11.1875 25.035156 25.035156v20.566407c0 4.199218 3.402344 7.601562 7.601562 7.601562h20.171876c-4.199219 0-7.601563-3.402344-7.601563-7.601562zm0 0" fill="#ccd2db"/><path d="m386.855469 34.914062h-30.457031v14.410157c0 2.105469-1.707032 3.808593-3.808594 3.808593h-16.78125v19.257813c0 1.667969 1.355468 3.019531 3.023437 3.019531h48.023438c1.667969 0 3.019531-1.351562 3.019531-3.019531v-34.457031c0-1.667969-1.351562-3.019532-3.019531-3.019532zm0 0" fill="#ee5253"/><path d="m356.398438 34.914062v14.410157c0 2.105469-1.707032 3.808593-3.808594 3.808593h-16.78125v19.257813c0 1.667969 1.355468 3.019531 3.023437 3.019531h17.273438c12.601562-.769531 22.621093-11.261718 22.621093-24.054687v-16.441407zm0 0" fill="#d83941"/><path d="m354.621094 14.664062h-50.261719v40.496094h50.261719c2.101562 0 3.804687-1.703125 3.804687-3.804687v-32.882813c0-2.101562-1.703125-3.808594-3.804687-3.808594zm0 0" fill="#ff6b6b"/><path d="m304.359375 14.664062h27.914063v40.496094h-27.914063zm0 0" fill="#ee5253"/><path d="m304.359375 113.828125c-4.203125 0-7.609375-3.410156-7.609375-7.613281v-98.601563c0-4.207031 3.40625-7.613281 7.609375-7.613281 4.207031 0 7.613281 3.40625 7.613281 7.613281v98.601563c0 4.203125-3.40625 7.613281-7.613281 7.613281zm0 0" fill="#e4eaf8"/><path d="m185.863281 294.769531 65.410157-107.527343-30.058594-49.542969c-1.441406-2.171875-4.71875-2.105469-6.074219.117187l-96.378906 158.441406c-1.742188 2.863282.371093 6.488282 3.785156 6.488282h67.972656c-4.199219 0-6.796875-4.457032-4.65625-7.976563zm0 0" fill="#feca57"/><path d="m139.058594 296.257812 89.296875-146.792968-7.140625-11.769532c-1.441406-2.167968-4.71875-2.101562-6.074219.121094l-96.382813 158.4375c-1.738281 2.863282.375 6.488282 3.789063 6.488282h20.296875c-3.414062.003906-5.527344-3.621094-3.785156-6.484376zm0 0" fill="#f4b537"/><path d="m423.421875 296.265625-116.285156-196.425781c-1.730469-2.667969-5.664063-2.589844-7.289063.148437l-115.621094 194.78125c-2.089843 3.519531.445313 7.976563 4.539063 7.976563h230.964844c3.324219 0 5.386719-3.617188 3.691406-6.480469zm0 0" fill="#f4b537"/><path d="m204.523438 294.769531 109.152343-183.882812-6.539062-11.046875c-1.734375-2.667969-5.664063-2.585938-7.289063.148437l-115.621094 194.78125c-2.089843 3.519531.445313 7.976563 4.539063 7.976563h20.300781c-4.09375 0-6.632812-4.457032-4.542968-7.976563zm0 0" fill="#e59d1f"/></svg>