<svg height="464pt" viewBox="0 0 464.19886 464" width="464pt" xmlns="http://www.w3.org/2000/svg"><path d="m432.199219.0976562c17.671875 0 32 14.3281248 32 31.9999998v240h-64v-240c0-17.671875 14.328125-31.9999998 32-31.9999998zm0 0" fill="#ee1442"/><path d="m444.199219 2.5c-9.851563-4.03125-21.066407-2.886719-29.902344 3.054688-8.832031 5.941406-14.121094 15.898437-14.097656 26.542968v240h24v-240c.027343-13.015625 7.933593-24.71875 20-29.597656zm0 0" fill="#ce1743"/><path d="m448.199219 304.097656v-32h-48v192c35.347656 0 64-28.652344 64-64v-80c0-8.835937-7.164063-16-16-16zm0 0" fill="#88d3d1"/><path d="m416.199219 407.148438v-103.050782c0-8.835937 7.164062-16 16-16h16v-16h-48v192h.800781c8.566406-.328125 15.308594-7.425781 15.199219-16zm0 0" fill="#33b1a2"/><path d="m432.199219 408.097656c-4.417969 0-8-3.578125-8-8v-48c0-4.417968 3.582031-8 8-8s8 3.582032 8 8v48c0 4.421875-3.582031 8-8 8zm0 0" fill="#c5dddc"/><path d="m400.199219 208.097656h64v32h-64zm0 0" fill="#88d3d1"/><path d="m400.199219 176.097656h64v32h-64zm0 0" fill="#c5dddc"/><path d="m400.199219 176.097656h24v32h-24zm0 0" fill="#88d3d1"/><path d="m400.199219 208.097656h24v32h-24zm0 0" fill="#33b1a2"/><path d="m196.894531 391.394531c-3.875-.011719-7.183593-2.796875-7.855469-6.613281-.671874-3.816406 1.488282-7.566406 5.128907-8.898438l30.03125-10.984374c2.699219-1.042969 5.753906-.542969 7.984375 1.300781 2.230468 1.847656 3.289062 4.753906 2.765625 7.601562-.519531 2.847657-2.539063 5.191407-5.277344 6.128907l-30.074219 10.953124c-.863281.328126-1.777344.5-2.703125.511719zm0 0" fill="#c5dddc"/><path d="m145.277344 391.394531c-.929688 0-1.859375-.160156-2.734375-.480469l-30.070313-10.949218c-4.066406-1.570313-6.128906-6.105469-4.636718-10.199219 1.488281-4.097656 5.984374-6.246094 10.105468-4.835937l30.074219 10.953124c3.640625 1.332032 5.800781 5.085938 5.125 8.902344-.671875 3.816406-3.984375 6.601563-7.863281 6.609375zm0 0" fill="#88d3d1"/><path d="m336.902344 394.699219c-9.414063-18.492188-29.558594-28.933594-50.09375-25.96875-8.589844 1.253906-16.667969 4.855469-23.347656 10.402343l-77.597657-213.113281c-.726562-1.996093-.628906-4.199219.273438-6.125.898437-1.921875 2.527343-3.410156 4.527343-4.132812 1.996094-.71875 3.625-2.207031 4.527344-4.132813.898438-1.921875.996094-4.125.269532-6.121094l-52-142.832031c-24.90625 9.066407-37.75 36.609375-28.6875 61.519531l32 88 101.425781 278.632813c8.570312 24.578125 34.78125 38.242187 59.839843 31.199219 13.488282-4.140625 24.476563-14.003906 30.035157-26.976563 5.558593-12.96875 5.132812-27.726562-1.171875-40.351562zm-37.503906 36.511719c-8.308594 3.003906-17.476563-1.296876-20.480469-9.601563-3.007813-8.304687 1.285156-17.476563 9.585937-20.488281 8.304688-3.011719 17.476563 1.277344 20.496094 9.578125 1.449219 3.992187 1.253906 8.398437-.546875 12.246093-1.800781 3.847657-5.058594 6.820313-9.054687 8.265626zm0 0" fill="#c5dddc"/><path d="m195.398438 152.1875 32-87.960938c9.066406-24.910156-3.777344-52.453124-28.6875-61.519531l-27.625 75.871094 24.375 66.960937m-24.375 73.382813-17.023438-46.78125-75.351562 207.023437c-6.679688-5.546874-14.753907-9.144531-23.34375-10.402343-24.75-3.558594-48.085938 12.472656-53.636719 36.851562-5.554688 24.378907 8.539062 48.9375 32.386719 56.445313 25.058593 7.046875 51.273437-6.621094 59.839843-31.199219zm-107.839844 202.722656c-3.011719 8.304688-12.1875 12.59375-20.492188 9.585938-8.304687-3.011719-12.597656-12.183594-9.59375-20.492188 3.007813-8.304687 12.179688-12.601562 20.488282-9.597656 3.992187 1.441406 7.246093 4.414063 9.046874 8.261719 1.800782 3.84375 2 8.25.550782 12.242187zm0 0" fill="#88d3d1"/><path d="m154.0625 172.140625-8.511719 23.390625 17.023438 46.777344 8.511719-23.386719zm0 0" fill="#33b1a2"/><path d="m195.460938 145.539062-.085938 6.648438 9.769531-26.824219-25.546875-70.175781-8.511718 23.390625zm0 0" fill="#33b1a2"/><path d="m326.277344 446.058594c-25.054688 7.046875-51.269532-6.621094-59.839844-31.199219l-101.4375-278.671875-32-87.960938c-5.269531-14.472656-3.25-30.597656 5.421875-43.328124-21.796875 10.90625-31.960937 36.414062-23.640625 59.320312l32 88 101.417969 278.609375c8.570312 24.578125 34.78125 38.242187 59.839843 31.199219 10.488282-3.21875 19.546876-9.949219 25.65625-19.0625-2.382812 1.234375-4.863281 2.269531-7.417968 3.09375zm0 0" fill="#88d3d1"/><path d="m58.117188 446.058594c-13.496094-4.140625-24.484376-14.011719-30.039063-26.992188-5.558594-12.976562-5.121094-27.742187 1.191406-40.367187 1.53125-2.992188 3.386719-5.804688 5.53125-8.390625-19.890625 5.613281-33.914062 23.375-34.7617185 44.023437-.8437505 20.648438 11.6796875 39.5 31.0429685 46.71875 19.363281 7.222657 41.171875 1.175781 54.054688-14.984375-8.804688 2.703125-18.214844 2.699219-27.019531-.007812zm0 0" fill="#33b1a2"/></svg>