<?xml version="1.0" encoding="iso-8859-1"?>
<!-- Generator: Adobe Illustrator 19.0.0, SVG Export Plug-In . SVG Version: 6.00 Build 0)  -->
<svg version="1.1" id="Capa_1" xmlns="http://www.w3.org/2000/svg" xmlns:xlink="http://www.w3.org/1999/xlink" x="0px" y="0px"
	 viewBox="0 0 458.606 458.606" style="enable-background:new 0 0 458.606 458.606;" xml:space="preserve">
<polygon style="fill:#CED8DF;" points="427.976,113.137 314.84,0 292.212,22.626 326.153,56.567 292.212,90.509 337.468,135.764 
	371.408,101.823 405.349,135.764 "/>
<path style="fill:#9ECD54;" d="M54.638,400.662l-16.976,16.976c-9.376,9.376-9.376,24.576,0,33.936
	c9.376,9.376,24.576,9.376,33.936,0c9.376-9.376,9.376-24.576,0-33.936L54.638,400.662z"/>
<path style="fill:#CDDCF0;" d="M394.035,192.333L235.643,33.941l-22.627,22.627l22.626,22.626L88.574,226.261
	c4.527,13.953,13.088,28.849,24.286,43.585l-24.286,24.288l45.264,45.28l24.288-24.288c14.751,11.199,29.631,19.775,43.583,24.288
	l147.076-147.076l22.622,22.622L394.035,192.333z"/>
<polygon style="fill:#CDCCCC;" points="105.549,311.11 54.637,362.038 54.637,384.662 116.862,322.438 "/>
<rect x="97.568" y="314.423" transform="matrix(-0.7071 0.7071 -0.7071 -0.7071 408.2025 475.7633)" style="fill:#ABABAB;" width="16" height="16"/>
<rect x="200.892" y="131.078" transform="matrix(-0.7071 -0.7071 0.7071 -0.7071 375.515 449.6912)" style="fill:#B2C6E5;" width="159.998" height="31.992"/>
<polygon style="fill:#BCCFEA;" points="337.468,135.764 292.212,90.509 201.702,181.018 190.388,169.705 167.763,192.329 
	235.647,260.213 258.271,237.588 246.957,226.274 "/>
<rect x="264.907" y="115.084" transform="matrix(-0.7071 0.7071 -0.7071 -0.7071 583.5417 52.4565)" style="fill:#A3BADF;" width="32" height="63.999"/>
<polygon style="fill:#C1CDD7;" points="326.637,57.052 326.637,124.934 337.466,135.764 371.408,101.822 "/>
<polygon style="fill:#7BC24D;" points="235.644,260.216 167.756,192.328 122.509,237.574 150.797,265.862 105.548,311.111 
	116.861,322.424 162.11,277.175 190.397,305.462 "/>
<path style="fill:#B2C6E5;" d="M128.365,288.294l-22.818,22.818l28.289,28.302l24.175-24.174
	c-7.55-5.718-15.661-12.553-24.192-21.084C131.813,292.15,130.191,290.252,128.365,288.294z"/>
<path style="fill:#68B248;" d="M139.678,299.606c-1.957-1.825-3.854-3.446-5.858-5.451c-2.006-2.006-3.629-3.904-5.454-5.862
	l-22.818,22.818l11.313,11.313L139.678,299.606z"/>
<g>
</g>
<g>
</g>
<g>
</g>
<g>
</g>
<g>
</g>
<g>
</g>
<g>
</g>
<g>
</g>
<g>
</g>
<g>
</g>
<g>
</g>
<g>
</g>
<g>
</g>
<g>
</g>
<g>
</g>
</svg>
