<?xml version="1.0" encoding="iso-8859-1"?>
<!-- Generator: Adobe Illustrator 19.0.0, SVG Export Plug-In . SVG Version: 6.00 Build 0)  -->
<svg version="1.1" id="Capa_1" xmlns="http://www.w3.org/2000/svg" xmlns:xlink="http://www.w3.org/1999/xlink" x="0px" y="0px"
	 viewBox="0 0 512 512" style="enable-background:new 0 0 512 512;" xml:space="preserve">
<path style="fill:#E5E5E5;" d="M58.057,250.452c-4.263,0-8.481-1.802-11.455-5.288c-13.916-16.392-25.532-34.585-34.526-54.082
	C-11.919,139.095,0.562,73.55,43.145,30.981l11.587-11.587c5.859-5.859,15.352-5.859,21.211,0s5.859,15.352,0,21.211L64.355,52.192
	c-33.721,33.735-43.784,85.687-25.034,126.321c7.852,17.021,18.003,32.915,30.161,47.227c5.361,6.313,4.585,15.791-1.729,21.152
	C64.927,249.28,61.484,250.452,58.057,250.452z"/>
<path style="fill:#D9D9D9;" d="M273.943,250.452c-3.428,0-6.87-1.172-9.697-3.56c-6.313-5.361-7.09-14.839-1.729-21.152
	c12.158-14.312,22.31-30.205,30.161-47.227c18.75-40.635,8.687-92.586-25.034-126.321l-11.587-11.587
	c-5.859-5.859-5.859-15.352,0-21.211s15.352-5.859,21.211,0l11.587,11.587c42.583,42.568,55.063,108.113,31.069,160.101
	c-8.994,19.497-20.61,37.69-34.526,54.082C282.425,248.65,278.206,250.452,273.943,250.452z"/>
<path style="fill:#17ACE8;" d="M452,347v30c0,8.399-6.599,15-15,15s-15-6.601-15-15v-30c0-13.2-5.7-25.8-15.901-34.2
	c-10.199-8.7-23.399-12.3-36.899-10.201c-21,3.602-37.2,24.001-37.2,47.701V422c0,25.499-10.8,49.799-29.7,66.899
	c-16.499,15-38.1,23.101-60.6,23.101c-2.999,0-6-0.3-9-0.601c-27.599-2.699-52.601-18.9-66.7-42.299
	c-9.6-14.702-15-32.401-15-51.301V332c0-8.401,6.599-15,15-15s15,6.599,15,15v85.8c0,32.701,24.699,60.901,54.699,63.9
	c17.401,1.8,33.9-3.6,46.501-15.3c12.6-11.401,19.8-27.6,19.8-44.4v-71.7c0-38.401,27.001-71.4,62.401-77.401
	c22.2-3.3,44.399,2.701,61.199,17.1C442.4,304.1,452,325.099,452,347z"/>
<g>
	<path style="fill:#1DE8F1;" d="M322.099,228.199c-55.499,86.7-142,114.901-145,116.7c-3.6,1.5-7.2,2.1-11.1,2.1
		s-7.5-0.601-11.1-2.1c-2.999-1.8-89.2-30-145-116.7c-6.301-9.3-6.601-20.4-1.201-30.3C14.099,188,24.3,182,35.099,182
		C45.3,182,54.9,187.4,60.9,196.7c40.199,61.8,102.1,86.1,105.099,88.2c2.999-2.1,64.9-26.4,105.099-88.2
		c6-9.3,15.601-14.7,25.801-14.7c10.8,0,21,6,26.4,15.599C328.7,207.8,328.4,218.899,322.099,228.199z"/>
	<path style="fill:#1DE8F1;" d="M69.731,55.605l-30-30c-5.859-5.859-5.859-15.352,0-21.211s15.352-5.859,21.211,0l30,30
		c5.859,5.859,5.859,15.352,0,21.211C85.083,61.465,75.591,61.465,69.731,55.605z"/>
</g>
<g>
	<path style="fill:#1BD9DE;" d="M241.058,55.605c-5.859-5.859-5.859-15.352,0-21.211l30-30c5.859-5.859,15.352-5.859,21.211,0
		s5.859,15.352,0,21.211l-30,30C256.409,61.465,246.917,61.465,241.058,55.605z"/>
	<path style="fill:#1BD9DE;" d="M322.099,228.199c-55.499,86.7-142,114.901-145,116.7c-3.6,1.5-7.2,2.1-11.1,2.1v-62.1
		c2.999-2.1,64.9-26.4,105.099-88.2c6-9.3,15.601-14.7,25.801-14.7c10.8,0,21,6,26.4,15.599
		C328.7,207.8,328.4,218.899,322.099,228.199z"/>
</g>
<path style="fill:#E5E5E5;" d="M437,362c-41.4,0-75,33.6-75,75s33.6,75,75,75s75-33.6,75-75S478.4,362,437,362z"/>
<path style="fill:#1DE8F1;" d="M437,392c-24.901,0-45,20.099-45,45c0,24.899,20.099,45,45,45s45-20.101,45-45
	C482,412.099,461.901,392,437,392z"/>
<path style="fill:#E5E5E5;" d="M452,437c0,8.399-6.599,15-15,15s-15-6.601-15-15c0-8.401,6.599-15,15-15S452,428.599,452,437z"/>
<path style="fill:#D9D9D9;" d="M512,437c0,41.4-33.6,75-75,75V362C478.4,362,512,395.6,512,437z"/>
<path style="fill:#1BD9DE;" d="M482,437c0,24.899-20.099,45-45,45v-90C461.901,392,482,412.099,482,437z"/>
<path style="fill:#D9D9D9;" d="M452,437c0,8.399-6.599,15-15,15v-30C445.401,422,452,428.599,452,437z"/>
<g>
</g>
<g>
</g>
<g>
</g>
<g>
</g>
<g>
</g>
<g>
</g>
<g>
</g>
<g>
</g>
<g>
</g>
<g>
</g>
<g>
</g>
<g>
</g>
<g>
</g>
<g>
</g>
<g>
</g>
</svg>
