<?xml version="1.0" encoding="iso-8859-1"?>
<!-- Generator: Adobe Illustrator 19.0.0, SVG Export Plug-In . SVG Version: 6.00 Build 0)  -->
<svg version="1.1" id="Capa_1" xmlns="http://www.w3.org/2000/svg" xmlns:xlink="http://www.w3.org/1999/xlink" x="0px" y="0px"
	 viewBox="0 0 512 512" style="enable-background:new 0 0 512 512;" xml:space="preserve">
<path style="fill:#E6E6E6;" d="M288.883,52.966L288.883,52.966c-15.872,0-31.576,3.222-46.168,9.472l0,0
	c-25.335,10.867-54.025,10.867-79.36,0l0,0c-14.592-6.25-30.296-9.472-46.168-9.472l0,0C52.471,52.966,0.009,105.419,0,170.134
	c0,0.009,0,0.009,0,0.018l0,0c0,50.335,14.142,99.663,40.819,142.345l3.319,5.297l38.444,169.154
	C85.91,501.601,98.94,512,113.973,512l0,0c15.748,0.009,29.193-11.37,31.779-26.898l26.483-158.844
	c2.507-15.06,15.528-26.103,30.799-26.121l0,0c15.281,0,28.319,11.043,30.835,26.121l26.483,158.844
	c2.586,15.519,16.013,26.889,31.744,26.898l0,0c15.033,0,28.063-10.399,31.391-25.053l38.444-169.154l3.319-5.297
	c26.677-42.681,40.819-92.01,40.819-142.345l0,0c0.009-64.715-52.454-117.177-117.169-117.186
	C288.892,52.966,288.892,52.966,288.883,52.966z"/>
<g>
	<path style="fill:#DEDEDE;" d="M82.582,486.938c3.946,17.337,21.204,28.186,38.541,24.241
		c12.729-2.895,22.449-13.197,24.602-26.077l22.546-135.256c-33.412,20.718-68.352,38.868-104.519,54.272L82.582,486.938z"/>
	<path style="fill:#DEDEDE;" d="M225.916,310.237c4.167,4.449,6.93,10.019,7.945,16.022l26.483,158.844
		c2.931,17.54,19.527,29.378,37.067,26.439c12.879-2.154,23.181-11.873,26.077-24.602l38.444-169.145l3.319-5.297
		c26.677-42.681,40.819-92.01,40.819-142.345c0.009-18.935-4.599-37.597-13.418-54.351
		C352.424,192.344,295.424,258.807,225.916,310.237z"/>
</g>
<g>
	<path style="fill:#F2F2F2;" d="M52.966,167.724H35.31c0-47.625,33.545-66.904,51.2-70.444l3.46,17.302l-1.695-8.651l1.766,8.642
		C88.541,114.9,52.966,122.968,52.966,167.724z"/>
	<rect x="105.931" y="97.103" style="fill:#F2F2F2;" width="17.655" height="17.655"/>
</g>
<path style="fill:#DEDEDE;" d="M288.883,52.966c-9.737,0.053-19.43,1.315-28.857,3.761
	c-51.597,36.705-63.673,108.297-26.968,159.894s108.297,63.673,159.894,26.968c1.183-0.847,2.357-1.713,3.513-2.595
	c6.347-23.084,9.578-46.901,9.604-70.841c0.009-64.715-52.454-117.177-117.169-117.186
	C288.892,52.966,288.892,52.966,288.883,52.966z"/>
<rect x="431.48" y="160.858" transform="matrix(-0.7071 0.7071 -0.7071 -0.7071 930.8463 73.4679)" style="fill:#3E8CC7;" width="37.455" height="137.321"/>
<circle style="fill:#4398D1;" cx="326.621" cy="114.759" r="114.759"/>
<circle style="fill:#86C8DC;" cx="326.621" cy="114.759" r="79.448"/>
<g>
	
		<rect x="276.839" y="86.034" transform="matrix(-0.7071 0.7071 -0.7071 -0.7071 598.2759 -58.0906)" style="fill:#A2DAEB;" width="68.66" height="17.655"/>
	
		<rect x="292.536" y="119.159" transform="matrix(-0.7071 0.7071 -0.7071 -0.7071 670.7238 -21.8497)" style="fill:#A2DAEB;" width="94.701" height="17.655"/>
</g>
<g>
</g>
<g>
</g>
<g>
</g>
<g>
</g>
<g>
</g>
<g>
</g>
<g>
</g>
<g>
</g>
<g>
</g>
<g>
</g>
<g>
</g>
<g>
</g>
<g>
</g>
<g>
</g>
<g>
</g>
</svg>
