<?xml version="1.0" encoding="iso-8859-1"?>
<!-- Generator: Adobe Illustrator 19.0.0, SVG Export Plug-In . SVG Version: 6.00 Build 0)  -->
<svg version="1.1" id="Capa_1" xmlns="http://www.w3.org/2000/svg" xmlns:xlink="http://www.w3.org/1999/xlink" x="0px" y="0px"
	 viewBox="0 0 512 512" style="enable-background:new 0 0 512 512;" xml:space="preserve">
<path style="fill:#C0C0C0;" d="M207.467,344.766l-6.282-1.411l10.125-46.115c1.03-12.62-2.548-44.415,13.352-86.195L329.798,3.894
	c1.483-3.897,6.375-5.155,9.554-2.457l0,0c8.277,7.023,12.751,17.542,12.069,28.376l-38.517,221.629
	c-0.638,10.146-4.973,19.706-12.184,26.871l-40.297,40.042l-22.988,102.364c-2.842,12.656-16.436,20.611-29.091,17.769l-0.287-0.296
	l14.474-69.04C225.105,357.689,218.93,347.34,207.467,344.766z"/>
<path style="fill:#AFB1B2;" d="M222.909,361.196l9.638-43.899c1.155-14.145-2.856-49.783,14.965-96.612L350.199,18.361
	c-1.83-6.514-5.557-12.434-10.847-16.923c-3.179-2.698-8.071-1.44-9.554,2.457l-105.137,207.15
	c-15.875,41.717-12.326,73.632-13.352,86.195l-10.125,46.115C203.134,344.282,220.662,344.53,222.909,361.196z"/>
<path style="fill:#E6E7E8;" d="M304.564,344.766l6.282-1.411l-10.125-46.115c-1.03-12.62,2.548-44.415-13.352-86.195L182.233,3.894
	c-1.483-3.897-6.375-5.155-9.554-2.457l0,0c-8.277,7.023-12.751,17.542-12.069,28.376l38.517,221.629
	c0.638,10.146,4.973,19.706,12.184,26.871l31.347,31.149c5.845,5.808,9.909,13.164,11.715,21.204l20.224,90.054
	c2.842,12.656,16.436,20.611,29.091,17.769l0.287-0.296l-14.474-69.04C286.926,357.689,293.102,347.34,304.564,344.766z"/>
<path style="fill:#D9DADB;" d="M288.951,362.982l-10.685-47.577c-1.805-8.04-5.87-15.396-11.715-21.204l-31.347-31.149
	c-7.211-7.165-11.546-16.725-12.184-26.871C183.163,3.176,183.751,16.802,184.645,8.646l-2.412-4.752
	c-1.483-3.897-6.375-5.155-9.554-2.457c-8.277,7.023-12.751,17.542-12.069,28.376l38.517,221.629
	c0.638,10.146,4.973,19.706,12.184,26.871l31.347,31.149c5.845,5.808,9.909,13.164,11.715,21.204l20.224,90.053
	c2.842,12.656,16.436,20.611,29.091,17.769l0.288-0.296C288.786,364.641,288.707,368.003,288.951,362.982z"/>
<path style="fill:#D83D3D;" d="M207.467,343.735l-69.04-15.505c-50.628-11.37-101.511,20.196-112.508,70.906
	c-10.784,49.728,20.37,98.927,69.934,110.441c50.543,11.742,100.834-20.758,112.204-71.386l15.505-69.04
	C226.136,357.689,218.93,346.31,207.467,343.735z M170.32,430.849c-6.62,29.479-35.885,48.01-65.364,41.39
	c-29.48-6.62-48.01-35.885-41.39-65.365c6.62-29.48,35.885-48.011,65.364-41.39C158.409,372.104,176.94,401.369,170.32,430.849z"/>
<path style="fill:#C43131;" d="M51.674,399.137c8.528-39.323,41.041-67.128,78.819-72.333
	c-47.903-6.584-94.152,24.273-104.574,72.333C12.146,462.65,66.173,520.084,129.585,511.061
	C76.062,503.465,40.214,451.987,51.674,399.137z"/>
<circle style="fill:#70BBEF;" cx="248.56" cy="241.13" r="16.407"/>
<path style="fill:#4CAEE5;" d="M248.563,224.734c-12.51-0.018-20.568,13.595-14.216,24.598c6.354,11.005,22.173,10.827,28.41-0.013
	C257.095,249.311,242.256,235.694,248.563,224.734z"/>
<path style="fill:#D83D3D;" d="M486.112,399.137c-10.997-50.71-61.88-82.276-112.508-70.906l-69.04,15.505
	c-11.463,2.574-18.669,13.954-16.095,25.417l15.505,69.04c11.37,50.628,61.661,83.128,112.204,71.386
	C465.742,498.063,496.896,448.865,486.112,399.137z M407.076,472.239c-29.479,6.62-58.744-11.911-65.365-41.39
	c-6.62-29.48,11.911-58.744,41.39-65.365c29.48-6.62,58.744,11.911,65.365,41.39C455.086,436.354,436.556,465.618,407.076,472.239z"
	/>
<path style="fill:#C43131;" d="M328.185,427.203l-15.505-69.04c-1.382-6.156,0.075-12.275,3.478-17.032l-11.594,2.604
	c-11.463,2.574-18.669,13.954-16.095,25.417l15.505,69.04c11.37,50.628,61.661,83.128,112.204,71.386
	c10.66-2.476,20.465-6.7,29.187-12.293C393.137,512.455,339.918,479.448,328.185,427.203z"/>
<g>
</g>
<g>
</g>
<g>
</g>
<g>
</g>
<g>
</g>
<g>
</g>
<g>
</g>
<g>
</g>
<g>
</g>
<g>
</g>
<g>
</g>
<g>
</g>
<g>
</g>
<g>
</g>
<g>
</g>
</svg>
