<svg xmlns="http://www.w3.org/2000/svg" viewBox="0 0 385.183 385.183"><path d="M346.522 146.375H304.17l29.946-29.946c15.1-15.1 15.1-39.58 0-54.679l-10.682-10.682c-15.099-15.1-39.579-15.1-54.679 0l-29.946 29.946v-42.35C238.809 17.31 221.499 0 200.145 0h-15.106c-21.354 0-38.663 17.311-38.663 38.664v42.352l-29.948-29.947c-15.1-15.1-39.579-15.1-54.678 0L51.069 61.751c-15.1 15.099-15.101 39.578-.001 54.677l29.947 29.948h-42.35c-21.354 0-38.664 17.31-38.664 38.664v15.104c0 21.354 17.309 38.663 38.664 38.663h42.35l-29.947 29.948c-15.1 15.1-15.099 39.578 0 54.677l10.682 10.681c15.099 15.101 39.578 15.102 54.678.002l29.947-29.947v42.351c0 21.355 17.309 38.664 38.663 38.664h15.106c21.354 0 38.664-17.309 38.664-38.664v-42.35l29.945 29.944c15.099 15.101 39.58 15.101 54.679 0l10.681-10.681c15.1-15.099 15.1-39.578 0-54.679l-29.945-29.946h42.352c21.354 0 38.663-17.309 38.663-38.663V185.04c.002-21.356-17.307-38.665-38.661-38.665zm-81.358 16.387s-8.233 8.538-21.649 2.562c0 0-6.891 6.273-17.989.541 0 0-8.232 6.274-16.953.862 0 0-5.16 3.46-9.486 2.904v31.44l.695-.096c1.966-.426 9.349-2.087 18.243-4.551 9.695-2.57 20.367-6.725 21.954-8.843-.123-.122-.367-.251-.611-.374-.914-.488-2.377-.906-4.147-1.28-3.536-.731-8.354-1.099-13.232-1.28-9.698-.358-10.07.035-11.587.061-2.596.043-7.216-.988-7.135-4.992.081-4.005 3.328-5.328 5.84-5.337 2.512-.01 1.845.022 7.211.092 8.902.67 36.162-1.532 39.577 12.799 0 .419.061.67.121 1.044-1.157 12.486-27.075 17.929-45.796 21.634 6.342 4.406 9.757 10.077 11.097 17.396.672 7.805-5.549 15.245-19.956 23.523 10.93 7.745 18.128 15.063 17.517 23.859-.975 7.196-7.317 16.77-19.758 22.807H199s8.72-13.293 9.269-20.566c.498-3.69-2.331-10.42-9.181-15.763v25.974a6.311 6.311 0 0 1-6.308 6.315 6.313 6.313 0 0 1-6.309-6.315c0-.095.01-.186.014-.278v-26.817c-.642.436-1.282.942-1.917 1.541-7.583 6.304-9.399 11.611-8.864 15.344.549 7.273 9.269 20.566 9.269 20.566h-.06-.061c-12.44-6.037-18.782-15.61-19.758-22.807-.61-8.797 6.586-16.114 17.563-23.859-14.454-8.278-20.673-15.719-20.002-23.523 1.341-7.38 4.756-13.051 11.098-17.396-18.721-3.705-44.639-9.147-45.797-21.634.062-.374.122-.625.122-1.044 3.415-14.331 30.675-12.129 39.577-12.799 5.366-.069 3.679-.237 7.642.304 2.5.504 5.69.831 5.505 5.312-.185 4.479-6.079 4.553-7.231 4.622-1.153.068-1.89-.419-11.586-.121-4.878.242-9.697.609-13.295 1.341-1.707.374-3.232.792-4.084 1.28-.306.123-.488.252-.611.374 1.587 2.118 12.258 6.272 21.954 8.843 10.125 2.805 14.86 3.777 19.698 4.878.275.063.561.097.841.146v-31.982c-5.578.57-9.866-2.74-9.866-2.74-8.782 5.412-16.953-.862-16.953-.862-11.099 5.732-18.051-.541-18.051-.541-13.354 5.977-21.587-2.562-21.587-2.562-15.427 2.805-21.1-10.009-21.1-10.009 28.541 2.562 51.958-25.43 57.934-30.3 5.854-4.825 10.001-3.721 15.916 6.883 3.819 6.811 9.852 7.763 13.709 7.622v-.483c-4.654-2.342-7.854-7.148-7.854-12.714 0-7.862 6.374-14.236 14.236-14.236s14.236 6.374 14.236 14.236c0 5.629-3.274 10.48-8.016 12.791v.418c3.864.062 9.634-1.045 13.329-7.634 5.914-10.604 10.001-11.708 15.916-6.883 5.976 4.87 29.394 32.861 57.933 30.3-.006-.001-5.679 12.812-21.106 10.007z" fill="#e74424"/><path d="M175.148 228.348c0 2.817 1.531 6.142 4.824 8.69 2.577 1.995 4.119 2.608 6.512 4.109v-25.332c-12.123 4.756-11.336 9.785-11.336 12.533zM199.086 240.513a32.94 32.94 0 0 0 4.912-3.475c3.169-2.7 4.839-5.526 4.839-8.212 0-2.555.688-7.664-9.751-12.317v24.004z" fill="#e74424"/><path d="M228.331 122.454c-5.915-4.825-10.001-3.721-15.916 6.883-3.695 6.589-9.465 7.695-13.329 7.634v-.418c4.741-2.311 8.016-7.162 8.016-12.791 0-7.862-6.374-14.236-14.236-14.236s-14.236 6.374-14.236 14.236c0 5.565 3.2 10.372 7.854 12.714v.483c-3.857.141-9.89-.812-13.709-7.622-5.914-10.604-10.061-11.708-15.916-6.883-5.976 4.87-29.393 32.861-57.934 30.3 0 0 5.673 12.813 21.1 10.009 0 0 8.233 8.538 21.587 2.562 0 0 6.952 6.273 18.051.541 0 0 8.171 6.274 16.953.862 0 0 4.289 3.311 9.866 2.74v31.982c-.28-.05-.565-.084-.841-.146-4.837-1.101-9.573-2.073-19.698-4.878-9.696-2.57-20.367-6.725-21.954-8.843.124-.122.306-.251.611-.374.853-.488 2.378-.906 4.084-1.28 3.598-.731 8.417-1.099 13.295-1.341 9.697-.298 10.434.189 11.586.121 1.152-.069 7.046-.143 7.231-4.622.185-4.48-3.005-4.808-5.505-5.312-3.962-.541-2.276-.373-7.642-.304-8.902.67-36.162-1.532-39.577 12.799 0 .419-.06.67-.122 1.044 1.158 12.486 27.076 17.929 45.797 21.634-6.342 4.345-9.757 10.016-11.098 17.396-.671 7.805 5.549 15.245 20.002 23.523-10.977 7.745-18.173 15.063-17.563 23.859.976 7.196 7.318 16.77 19.758 22.807h.121s-8.719-13.293-9.269-20.566c-.535-3.732 1.281-9.04 8.864-15.344a15.355 15.355 0 0 1 1.917-1.541v26.817c-.004.093-.014.184-.014.278 0 3.487 2.825 6.315 6.309 6.315s6.308-2.827 6.308-6.315v-25.973c6.85 5.343 9.679 12.072 9.181 15.763-.549 7.273-9.269 20.566-9.269 20.566h.12c12.441-6.037 18.783-15.61 19.758-22.807.612-8.797-6.586-16.114-17.517-23.859 14.407-8.278 20.628-15.719 19.956-23.523-1.34-7.318-4.755-12.989-11.097-17.396 18.721-3.705 44.639-9.147 45.796-21.634-.061-.374-.121-.625-.121-1.044-3.415-14.331-30.675-12.129-39.577-12.799-5.367-.069-4.7-.102-7.211-.092-2.513.009-5.759 1.332-5.84 5.337-.081 4.004 4.539 5.035 7.135 4.992 1.518-.025 1.89-.419 11.587-.061 4.878.182 9.696.549 13.232 1.28 1.77.374 3.233.792 4.147 1.28.244.123.488.252.611.374-1.587 2.118-12.258 6.272-21.954 8.843-8.895 2.464-16.277 4.125-18.243 4.551-.218.029-.464.063-.695.096v-31.44c4.326.556 9.486-2.904 9.486-2.904 8.721 5.412 16.953-.862 16.953-.862 11.098 5.732 17.989-.541 17.989-.541 13.417 5.977 21.649-2.562 21.649-2.562 15.427 2.805 21.1-10.009 21.1-10.009-28.534 2.562-51.951-25.429-57.927-30.299zm-41.847 118.694c-2.393-1.501-3.935-2.114-6.512-4.109-3.293-2.549-4.824-5.873-4.824-8.69 0-2.748-.787-7.777 11.336-12.532v25.331zm22.353-12.321c0 2.686-1.67 5.512-4.839 8.212a32.94 32.94 0 0 1-4.912 3.475V216.51c10.44 4.653 9.751 9.762 9.751 12.317z" fill="#f7f1e6"/></svg>