<svg xmlns="http://www.w3.org/2000/svg" viewBox="0 0 458.606 458.606"><path fill="#ced8df" d="M427.976 113.137L314.84 0l-22.628 22.626 33.941 33.941-33.941 33.942 45.256 45.255 33.94-33.941 33.941 33.941z"/><path d="M54.638 400.662l-16.976 16.976c-9.376 9.376-9.376 24.576 0 33.936 9.376 9.376 24.576 9.376 33.936 0 9.376-9.376 9.376-24.576 0-33.936l-16.96-16.976z" fill="#9ecd54"/><path d="M394.035 192.333L235.643 33.941l-22.627 22.627 22.626 22.626L88.574 226.261c4.527 13.953 13.088 28.849 24.286 43.585l-24.286 24.288 45.264 45.28 24.288-24.288c14.751 11.199 29.631 19.775 43.583 24.288l147.076-147.076 22.622 22.622 22.628-22.627z" fill="#cddcf0"/><path fill="#cdcccc" d="M105.549 311.11l-50.912 50.928v22.624l62.225-62.224z"/><path fill="#ababab" d="M116.884 322.425L105.57 333.74l-11.314-11.314 11.314-11.313z"/><path fill="#b2c6e5" d="M326.15 214.955L213.015 101.821l22.621-22.622 113.135 113.135z"/><path fill="#bccfea" d="M337.468 135.764l-45.256-45.255-90.51 90.509-11.314-11.313-22.625 22.624 67.884 67.884 22.624-22.625-11.314-11.314z"/><path fill="#a3badf" d="M314.85 158.396l-22.627 22.628-45.254-45.254 22.627-22.627z"/><path fill="#c1cdd7" d="M326.637 57.052v67.882l10.829 10.83 33.942-33.942z"/><path fill="#7bc24d" d="M235.644 260.216l-67.888-67.888-45.247 45.246 28.288 28.288-45.249 45.249 11.313 11.313 45.249-45.249 28.287 28.287z"/><path d="M128.365 288.294l-22.818 22.818 28.289 28.302 24.175-24.174a231.974 231.974 0 0 1-24.192-21.084c-2.006-2.006-3.628-3.904-5.454-5.862z" fill="#b2c6e5"/><path d="M139.678 299.606c-1.957-1.825-3.854-3.446-5.858-5.451-2.006-2.006-3.629-3.904-5.454-5.862l-22.818 22.818 11.313 11.313 22.817-22.818z" fill="#68b248"/></svg>