<svg viewBox="0 -1 464 464" xmlns="http://www.w3.org/2000/svg"><path d="M304 373.094h160v16H304zm0 0M376 197.094h32v56h-32zm0 0M392 413.094h64v16h-64zm0 0" fill="#a2a2a3"/><path d="M424 333.094c8.836 0 16-7.16 16-16v-16h-32v16c0 8.84 7.164 16 16 16zm0 0" fill="#fce688"/><g fill="#ffe5c2"><path d="M248 133.094l-15.2-57.719a35.426 35.426 0 0 0-53.48-15.672 35.419 35.419 0 0 1-39.367 1.215l-3.496-2.184a35.427 35.427 0 0 0-52.953 20.723L72 133.094zm0 0M60 133.094c-11.047 0-20 8.957-20 20 0 11.047 8.953 20 20 20h12v-40zm0 0M260 133.094h-12v40h12c11.047 0 20-8.953 20-20 0-11.043-8.953-20-20-20zm0 0M232 189.094h-40c-17.672 0-32-14.324-32-32 0 17.676-14.328 32-32 32H88c-8.836 0-16-7.16-16-16v8c0 48.601 39.398 88 88 88s88-39.399 88-88v-8c0 8.84-7.164 16-16 16zm0 0"/></g><path d="M272 317.094h-72l-40 40-40-40H48c-26.508 0-48 21.492-48 48v72h320v-72c0-26.508-21.492-48-48-48zm0 0" fill="#f2fcff"/><path d="M136.414 58.734l3.496 2.184a35.425 35.425 0 0 0 39.371-1.215 35.428 35.428 0 0 1 53.52 15.672L248 133.094l-3.336-79.805a63.182 63.182 0 0 0-31.871-45.414 63.208 63.208 0 0 0-55.41-2.781l-37.383 16c-30.93 0-56 25.074-56 56l8 56 11.465-53.598a35.421 35.421 0 0 1 52.95-20.762zm0 0" fill="#bd8331"/><path d="M160 133.094H72v40c0 8.84 7.164 16 16 16h40c17.672 0 32-14.324 32-32 0 17.676 14.328 32 32 32h40c8.836 0 16-7.16 16-16v-40zm0 0" fill="#a8e2f7"/><path d="M360 429.094l-40-40v-24a63.758 63.758 0 0 1 21.992-48.2l-29.504-36.597A87.644 87.644 0 0 0 288 341.094v120h176v-32zm0 0" fill="#b6b6b7"/><path d="M424 189.094v-16a8 8 0 0 0-8-8h-48a8 8 0 0 0-8 8v16c0 4.422 3.582 8 8 8h48c4.418 0 8-3.578 8-8zm0 0" fill="#e7e7e8"/><path d="M160 269.094a87.513 87.513 0 0 1-40-9.68v57.68l40 40 40-40v-57.68a87.513 87.513 0 0 1-40 9.68zm0 0" fill="#ffe5c2"/><path d="M120 171.094c-7.73 0-14-6.266-14-14 0-7.73 6.27-14 14-14s14 6.27 14 14c-.008 7.73-6.273 13.992-14 14zm0-16c-1.105 0-2 .898-2 2 0 2.203 4 2.203 4 0 0-1.102-.895-2-2-2zm0 0M200 171.094c-7.73 0-14-6.266-14-14 0-7.73 6.27-14 14-14s14 6.27 14 14c-.008 7.73-6.273 13.992-14 14zm0-16c-1.105 0-2 .898-2 2 0 2.203 4 2.203 4 0 0-1.102-.895-2-2-2zm0 0" fill="#805821"/><path d="M160 243.094c-16.559-.02-29.977-13.438-30-30h12c0 9.941 8.059 18 18 18s18-8.059 18-18h12c-.023 16.562-13.441 29.98-30 30zm0 0" fill="#f5d5ab"/><path d="M416 253.094h-40a88.213 88.213 0 0 0-20 2.402l14.824 47.008a63.843 63.843 0 0 1 13.176-1.41h16v8h48v-8h16c0-26.508-21.492-48-48-48zm0 0" fill="#b6b6b7"/><path d="M344 317.094c17.066.07 31.18-13.266 32.082-30.309.898-17.043-11.73-31.793-28.707-33.523-16.977-1.735-32.328 10.16-34.887 27.035A31.257 31.257 0 0 0 344 317.094zm0 0" fill="#e7e7e8"/><path d="M120 259.414v8a87.487 87.487 0 0 0 80 0v-8a87.487 87.487 0 0 1-80 0zm0 0" fill="#f2dab8"/><path d="M120 389.094a8.001 8.001 0 0 1-7.762-6.063l-6.484-25.937H72c-4.418 0-8-3.578-8-8v-32h16v24h32a8.01 8.01 0 0 1 7.762 6.066l5.902 23.617 15.809-5.265 5.054 15.199-24 8a7.813 7.813 0 0 1-2.527.383zm0 0M200 389.094a7.721 7.721 0 0 1-2.527-.414l-24-8 5.054-15.2 15.809 5.262 5.902-23.613a8.007 8.007 0 0 1 7.762-6.035h32v-24h16v32c0 4.422-3.582 8-8 8h-33.754l-6.484 25.937a8.001 8.001 0 0 1-7.762 6.063zm0 0" fill="#d3eaf2"/></svg>