<svg height="512pt" viewBox="0 -15 512 512" width="512pt" xmlns="http://www.w3.org/2000/svg"><path d="M161.887 231.8l-93.575 93.575c-11.789 11.793-11.789 31.09 0 42.883 11.797 11.793 31.094 11.793 42.887 0l9.442-9.442c8.949-8.949 23.593-8.949 32.543 0 8.949 8.95 8.949 23.594 0 32.543l-39.043 39.047c-11.793 11.793-11.793 31.09 0 42.883 11.793 11.793 31.09 11.793 42.882 0L280.2 350.113zm0 0" fill="#ccf8ff"/><path d="M128.426 265.266c2.656 13.671 9.383 30.554 23.64 50.355 25.97 36.07 52.114 62.863 68.688 93.938l59.445-59.446-118.312-118.312zm0 0" fill="#abebf4"/><path d="M363.16 348.387c-17.078 17.078-97.844 74.07-112.508 59.41-14.66-14.664 42.332-95.43 59.41-112.508 17.079-17.078 38.72-14.945 53.383-.285 14.66 14.664 16.793 36.305-.285 53.383zm0 0M216.71 201.938c-17.077 17.078-97.843 74.07-112.507 59.41-14.66-14.664 42.332-95.43 59.41-112.508s38.719-14.945 53.383-.285c14.66 14.664 16.793 36.3-.285 53.383zm0 0" fill="#ff929f"/><path d="M510.078 51.645c-3.015-26.11-23.61-46.708-49.723-49.72C409.54-3.944 323-.558 263.258 73.243c-48.914 60.422-78.668 104.309-95.586 131.664-11.906 19.254-8.992 44.164 7.015 60.172l72.235 72.235c16.008 16.007 40.918 18.921 60.172 7.015 27.36-16.918 71.246-46.672 131.664-95.586 73.8-59.742 77.187-146.281 71.32-197.097zm0 0" fill="#eaeaea"/><path d="M511.613 69.95a293.67 293.67 0 0 0-1.539-18.305c-3.015-26.11-23.61-46.708-49.719-49.72C409.54-3.944 323-.558 263.254 73.243c-48.91 60.422-78.664 104.309-95.582 131.664-11.906 19.254-8.992 44.164 7.015 60.172l48.442 48.442c24.258-57.762 71.402-116.739 104.375-153.844 19.957-22.461 47.129-37.102 76.785-41.942 54.094-8.824 88.754-31.656 107.324-47.785zm0 0" fill="#d8d7da"/><path d="M510.078 51.645c-3.015-26.11-23.61-46.708-49.723-49.72-18.613-2.152-42.027-3.058-67.152.282l116.59 116.59c3.34-25.125 2.434-48.54.285-67.152zm0 0" fill="#ff929f"/><path d="M510.078 51.645c-3.015-26.11-23.61-46.708-49.723-49.72-18.613-2.152-42.027-3.058-67.152.282l88.7 88.7c12.542-7.18 22.382-14.594 29.71-20.958a293.785 293.785 0 0 0-1.535-18.304zm0 0" fill="#ff737d"/><path d="M289.938 275.16c-17.079 17.078-97.848 74.074-112.508 59.41-14.664-14.664 42.332-95.43 59.41-112.508s38.719-14.945 53.379-.28c14.664 14.66 16.797 36.3-.281 53.378zm0 0" fill="#ff929f"/><path d="M433.266 144.719c0 36.441-29.543 65.984-65.985 65.984-36.445 0-65.984-29.543-65.984-65.984s29.539-65.985 65.984-65.985c36.442 0 65.985 29.543 65.985 65.985zm0 0" fill="#d8d7da"/><path d="M327.504 159.676c19.957-22.461 47.129-37.102 76.785-41.942a254.76 254.76 0 0 0 21.086-4.347 66.157 66.157 0 0 0-11.438-15.328c-25.765-25.766-67.546-25.766-93.316 0-21.941 21.945-25.195 55.496-9.773 80.886a937.007 937.007 0 0 1 16.656-19.27zm0 0" fill="#c6c5ca"/><path d="M342.477 169.523c-13.68-13.675-13.68-35.933 0-49.609 13.675-13.68 35.93-13.68 49.609 0 13.676 13.676 13.676 35.934 0 49.61-13.68 13.675-35.934 13.68-49.61 0zm0 0" fill="#ccf8ff"/><g fill="#abebf4"><path d="M360.59 142.54c10.988-10.99 27.515-13.138 40.68-6.474a34.948 34.948 0 0 0-9.184-16.152c-13.68-13.676-35.934-13.676-49.613 0-13.676 13.68-13.676 35.934 0 49.61a35.04 35.04 0 0 0 8.945 6.488c-2.934-11.598.117-24.418 9.172-33.473zm0 0M60.738 406.27c0 16.77-13.597 30.367-30.37 30.367C13.597 436.637 0 423.039 0 406.27c0-16.774 13.598-30.372 30.367-30.372 16.774 0 30.371 13.598 30.371 30.372zm0 0"/></g></svg>