<svg height="512pt" viewBox="0 -31 512 512" width="512pt" xmlns="http://www.w3.org/2000/svg"><path d="M288.7 270.598c1.5 8.101-4.2 15.902-12.302 17.101L226 298.2 174.402 309H172c-8.102-1.5-13.8-9.3-12.3-17.402l21.6-129c1.2-7.2 7.5-12.598 14.7-12.598h60c7.2 0 13.5 5.398 14.7 12.598zm0 0" fill="#a8ebfa"/><path d="M270.7 162.598l18 108c1.5 8.101-4.2 15.902-12.302 17.101L226 298.2V150h30c7.2 0 13.5 5.398 14.7 12.598zm0 0" fill="#76e2f8"/><path d="M301 120v15c0 24.898-20.098 45-45 45h-60c-24.902 0-45-20.102-45-45v-15l29.098-30H272.8zm0 0" fill="#a8d3d8"/><path d="M256 180h-30V90h46.8l28.2 30v15c0 24.898-20.098 45-45 45zm0 0" fill="#8ebac5"/><path d="M482 293.098L452 391.8l-116.5 50.398C325 447.301 313.3 450 301.902 450H184.3c-16.198 0-32.1-5.398-45-15L31 354c-13.5-9.902-15.902-28.8-6-42 12-14.402 29.102-15.3 42-6l21 15.598L135.398 357c2.403 1.8 5.7 3 9 3H301c8.402 0 15-6.602 15-15 0-8.402-6.598-15-15-15H181c-16.5 0-30-13.5-30-30s13.5-30 30-30h70.5c9.3-4.8 27.3-23.7 72.902-30H452zm0 0" fill="#fdd1a3"/><path d="M482 293.098L452 391.8l-116.5 50.398C325 447.301 313.3 450 301.902 450H226v-90h75c8.402 0 15-6.602 15-15 0-8.402-6.598-15-15-15h-75v-60h25.5c9.3-4.8 27.3-23.7 72.902-30H452zm0 0" fill="#ffbb85"/><path d="M497 420h-30c-8.285 0-15-6.715-15-15V240h45c8.285 0 15 6.715 15 15v150c0 8.285-6.715 15-15 15zm0 0" fill="#cc2e43"/><path d="M226 0H15C6.598 0 0 6.598 0 15v90c0 8.398 6.598 15 15 15h286V75c0-41.398-33.602-75-75-75zm0 0" fill="#deecf1"/><path d="M301 75v45h-75V0c41.398 0 75 33.602 75 75zm0 0" fill="#c6e2e7"/></svg>