<svg xmlns="http://www.w3.org/2000/svg" viewBox="0 0 512 512"><path d="M288.883 52.966a117.252 117.252 0 0 0-46.168 9.472 100.667 100.667 0 0 1-79.36 0 117.252 117.252 0 0 0-46.168-9.472C52.471 52.966.009 105.419 0 170.134v.018a268.578 268.578 0 0 0 40.819 142.345l3.319 5.297 38.444 169.154C85.91 501.601 98.94 512 113.973 512c15.748.009 29.193-11.37 31.779-26.898l26.483-158.844c2.507-15.06 15.528-26.103 30.799-26.121 15.281 0 28.319 11.043 30.835 26.121l26.483 158.844c2.586 15.519 16.013 26.889 31.744 26.898 15.033 0 28.063-10.399 31.391-25.053l38.444-169.154 3.319-5.297a268.575 268.575 0 0 0 40.819-142.345c.009-64.715-52.454-117.177-117.169-117.186l-.017.001z" fill="#e6e6e6"/><g fill="#dedede"><path d="M82.582 486.938c3.946 17.337 21.204 28.186 38.541 24.241a32.182 32.182 0 0 0 24.602-26.077l22.546-135.256a773.5 773.5 0 0 1-104.519 54.272l18.83 82.82zM225.916 310.237a30.995 30.995 0 0 1 7.945 16.022l26.483 158.844c2.931 17.54 19.527 29.378 37.067 26.439a32.186 32.186 0 0 0 26.077-24.602l38.444-169.145 3.319-5.297a268.575 268.575 0 0 0 40.819-142.345 116.59 116.59 0 0 0-13.418-54.351 574.163 574.163 0 0 1-166.736 194.435z"/></g><g fill="#f2f2f2"><path d="M52.966 167.724H35.31c0-47.625 33.545-66.904 51.2-70.444l3.46 17.302-1.695-8.651 1.766 8.642c-1.5.327-37.075 8.395-37.075 53.151zM105.931 97.103h17.655v17.655h-17.655z"/></g><path d="M288.883 52.966a117.44 117.44 0 0 0-28.857 3.761c-51.597 36.705-63.673 108.297-26.968 159.894s108.297 63.673 159.894 26.968a143.881 143.881 0 0 0 3.513-2.595 268.266 268.266 0 0 0 9.604-70.841c.009-64.715-52.454-117.177-117.169-117.186l-.017-.001z" fill="#dedede"/><path fill="#3e8cc7" d="M512.004 264.825l-26.484 26.484-97.1-97.1 26.484-26.484z"/><circle cx="326.621" cy="114.759" r="114.759" fill="#4398d1"/><circle cx="326.621" cy="114.759" r="79.448" fill="#86c8dc"/><g fill="#a2daeb"><path d="M341.688 76.828l-48.55 48.55-12.483-12.485 48.55-48.55zM379.614 100.745l-66.963 66.963-12.484-12.484 66.963-66.963z"/></g></svg>